inDegrees=no
num_controls=7
num_derivatives=13
num_iterations=37
num_multipliers=7
num_parameters=0
num_slacks=7
num_states=26
objective=0.471972
objective_accelerations=0.053309
objective_balance=0.000537
objective_effort=0.014982
objective_height=0.394058
objective_ligament=0.009086
solver_duration=521.994398
status=Solve_Succeeded
success=true
DataType=double
version=3
OpenSimVersion=4.5
endheader
time	/jointset/ground_pelvis/pelvis_tilt/value	/jointset/ground_pelvis/pelvis_tx/value	/jointset/ground_pelvis/pelvis_ty/value	/jointset/hip_l/hip_flexion_l/value	/jointset/hip_l/hip_adduction_l/value	/jointset/hip_l/hip_rotation_l/value	/jointset/back/lumbar_extension/value	/jointset/patellofemoral_l/patellar_flexion_l/value	/jointset/knee_l/knee_flexion_l/value	/jointset/knee_l/knee_adduction_l/value	/jointset/knee_l/knee_rotation_l/value	/jointset/ankle_l/ankle_angle_l/value	/jointset/subtalar_l/subtalar_angle_l/value	/jointset/ground_pelvis/pelvis_tilt/speed	/jointset/ground_pelvis/pelvis_tx/speed	/jointset/ground_pelvis/pelvis_ty/speed	/jointset/hip_l/hip_flexion_l/speed	/jointset/hip_l/hip_adduction_l/speed	/jointset/hip_l/hip_rotation_l/speed	/jointset/back/lumbar_extension/speed	/jointset/patellofemoral_l/patellar_flexion_l/speed	/jointset/knee_l/knee_flexion_l/speed	/jointset/knee_l/knee_adduction_l/speed	/jointset/knee_l/knee_rotation_l/speed	/jointset/ankle_l/ankle_angle_l/speed	/jointset/subtalar_l/subtalar_angle_l/speed	/forceset/tau_hip_flexion_l	/forceset/tau_hip_adduction_l	/forceset/tau_hip_rotation_l	/forceset/tau_knee_flexion_l	/forceset/tau_ankle_angle_l	/forceset/tau_subtalar_angle_l	/forceset/tau_lumbar_extension	lambda_cid13_p0	lambda_cid13_p1	lambda_cid13_p2	lambda_cid13_p3	lambda_cid13_p4	lambda_cid13_p5	lambda_cid14_p0	/jointset/ground_pelvis/pelvis_tilt/accel	/jointset/ground_pelvis/pelvis_tx/accel	/jointset/ground_pelvis/pelvis_ty/accel	/jointset/hip_l/hip_flexion_l/accel	/jointset/hip_l/hip_adduction_l/accel	/jointset/hip_l/hip_rotation_l/accel	/jointset/back/lumbar_extension/accel	/jointset/patellofemoral_l/patellar_flexion_l/accel	/jointset/knee_l/knee_flexion_l/accel	/jointset/knee_l/knee_adduction_l/accel	/jointset/knee_l/knee_rotation_l/accel	/jointset/ankle_l/ankle_angle_l/accel	/jointset/subtalar_l/subtalar_angle_l/accel	gamma_cid13_p0	gamma_cid13_p1	gamma_cid13_p2	gamma_cid13_p3	gamma_cid13_p4	gamma_cid13_p5	gamma_cid14_p0
0.5	-0.1621564753795765	0.0482117134415557	0.7959235443479132	0.8541355893834134	-0.3642361709041182	-0.02983522010924327	-0.3931170524183339	0.8796408254589153	0.8796408254589402	-0.04012389700663927	-0.1742002181224446	0.3101489670651613	0.161290862718573	-0.6283186667005061	-0.13225684411563	-0.4261657424997171	2.025122236580851	-0.000678418794983364	0.5176604620767606	-0.3196314183081195	1.783877611488125	1.783877611488123	0.2136526274791803	-0.002721103482432602	0.5303700522940116	0.2184402351632941	-0.08248053001383721	0.07688110170907723	-6.239064435032909e-05	-0.1987811165231397	0.01001103133665229	-0.01964134612245235	0.103457989210441	-24.47778264192548	17.08564789441157	-7.881758703633944	1.710913391855445	-444.0529122609068	-27.03068750515221	-7.780077618143327	0.1384278687044773	0.2617708114339874	-0.3621344942252095	-0.94228159906497	0.1709877737145513	-0.4851408906464779	1.216415522480013	-1.432317664197688	-1.432317664197689	-0.2554477824947676	0.1149767107429785	-0.7434466996943044	0.1606043010731412	-3.211370086059011e-07	-1.483422552586947e-06	3.583556824165544e-06	-7.169985559852537e-09	-7.44561368516046e-07	-1.863873345327748e-06	-5.504256165819974e-07
0.51	-0.1684310680866406	0.04690238776107969	0.7916448228761942	0.8743355139475504	-0.3642364462242305	-0.02468126639475381	-0.3962532850422584	0.8974046397349531	0.8974046397349149	-0.03800568862829672	-0.1742232149073272	0.3154138788618481	0.1634797699611387	-0.6265192692242648	-0.1295992407739844	-0.42948310860053	2.014597861393173	0.0006249003149265068	0.5130452966434562	-0.307594893976305	1.768627306929941	1.768627306929917	0.2100090334854149	-0.001907782301157312	0.5225245591654117	0.2193014900277386	-0.08655886705763322	0.07838619965923965	-0.0005709093905341667	-0.200258410273476	0.00775499372358854	-0.01886392974034803	0.1065710543379366	-25.33393592200357	17.04434729030393	-8.042427796657732	2.057395875373957	-446.6174756385975	-26.93094606992722	-7.070447289146129	0.2127527222405536	0.2691096014295455	-0.3023703904376227	-1.147283592380363	0.1097946729629449	-0.4629974934180565	1.20030276383471	-1.609964666584505	-1.609964666587865	-0.4159582545539628	0.06070672398998395	-0.8183405332081013	0.04274357610058076	-3.198314967628198e-07	-1.409094895164513e-06	3.617250703575034e-06	3.839647159370983e-09	-7.325553484959759e-07	-1.762657323176716e-06	-5.528582300712612e-07
0.52	-0.1746852554119103	0.04561990901519917	0.7873357611989812	0.8944222411370546	-0.3642237302145686	-0.01957612295935088	-0.3992685460478047	0.9150082354024167	0.9150082354023128	-0.03592334479934248	-0.1742388390999128	0.3205976877444927	0.1656760612517435	-0.62423759034175	-0.1268874571965344	-0.4322337835984152	2.002482761655031	0.00191984715817954	0.5078984062603387	-0.2954370946323651	1.751833889773523	1.751833889773478	0.2064797176222026	-0.001246585033067689	0.5141494694861987	0.2199170447710088	-0.09063720410146793	0.07989129760941595	-0.001079428137250561	-0.2017357040238058	0.005498956110542528	-0.01808651335820861	0.1096841194653956	-26.18656784982108	16.99300751074063	-8.190731753956921	2.376206010200778	-449.1326042092143	-26.91923100344762	-6.400040208829366	0.2348841499592701	0.2726068585947325	-0.2487962736396891	-1.260426509157687	0.169313320383189	-0.5914858806091009	1.240670524905159	-1.740940183844351	-1.740940183844351	-0.2325921563840889	0.08455192810585246	-0.849366009817058	0.1114642768382748	-3.125710931519167e-07	-1.095073425458303e-06	3.606635499334758e-06	4.366714899667935e-08	-7.053016595366023e-07	-1.512585281799524e-06	-5.313255006833886e-07
0.53	-0.1809143239187631	0.04436496639722093	0.7830020446432211	0.9143799294174449	-0.3641980830244863	-0.01452418550586233	-0.4021613234856862	0.9324365232275246	0.932436523227521	-0.03387621515536572	-0.1742480601813366	0.3256955391572894	0.1678774074515502	-0.6214910342738315	-0.1240764351488782	-0.4344102569144065	1.988768182391988	0.003197082323965184	0.502424229646672	-0.2830847857751277	1.733587290046771	1.733587290046739	0.2029359503808885	-0.0006298770148597324	0.5053709392774675	0.2203058147828104	-0.09453539192285546	0.08100037380566685	-0.001520138151035753	-0.2038925517196982	0.00422249993959157	-0.01744270156350329	0.1127212929104335	-26.74069736565126	16.98410652889155	-8.387700668566957	2.37119260098142	-451.8158783217719	-26.92462103702172	-5.769225252225938	0.3072726931419958	0.2890574823470967	-0.1873204620729892	-1.470022950907238	0.1045633299547247	-0.5356057137040144	1.237552141689178	-1.901873643757074	-1.901873643755138	-0.4168774892353301	0.04603560219820502	-0.8996309721024234	-0.004655338882938591	-3.033348028584446e-07	-8.385111907328318e-07	3.569440602079039e-06	7.455599837728462e-08	-6.752256121048886e-07	-1.286030470661824e-06	-5.112865307179694e-07
0.54	-0.1871133805933477	0.04313887552061759	0.7786495138340022	0.9341918620419952	-0.3641601365396807	-0.009529034250913528	-0.4049295696198842	0.9496752743000184	0.9496752743001433	-0.03186484488005904	-0.1742519531098637	0.33070409837886	0.1700811936110287	-0.6182352238885463	-0.1211171089215546	-0.4359966342900958	1.973331630487744	0.004379706100894094	0.4965411665546687	-0.270530833895621	1.713926539253361	1.713926539253343	0.1993278438903716	-0.0001809544558451359	0.4962910312406831	0.2204050367052557	-0.09843357974429552	0.08210945000188102	-0.00196084816486019	-0.2060493994155924	0.002946043768641533	-0.01679888976884787	0.1157584663554292	-27.29194816819781	16.96568024583571	-8.572844779209026	2.336490290232999	-454.4623876256236	-27.01498037712706	-5.178001869739005	0.336735013432674	0.3022676945280861	-0.1307770855793233	-1.60482103739808	0.1503910426118779	-0.6732631762764164	1.280999129359129	-2.023770397175655	-2.023770397175718	-0.2454600062245445	0.05099483626718229	-0.909641575427812	0.05355465896701348	-2.919124251714917e-07	-6.455208755605178e-07	3.50283838489134e-06	9.555527482706933e-08	-6.42026955299522e-07	-1.085494722767815e-06	-4.929002307518607e-07
0.55	-0.1932775034713113	0.04194297780081657	0.7742840785732157	0.9538412579818427	-0.3641106571285228	-0.004594213408880222	-0.4075714479205986	0.96671050865466	0.966710508654731	-0.02988994030536352	-0.1742517531297153	0.3356203083541566	0.1722846697317299	-0.6145124651110117	-0.1180512517422511	-0.4369888893972685	1.956284817915031	0.005507295662635794	0.4903778967926513	-0.2578379784685154	1.692887818027058	1.692887818027043	0.1956347935943273	0.0002055737587763541	0.4868895497771368	0.2202398400242264	-0.1023031957317169	0.08312728146315093	-0.002331912236958774	-0.2081815781468613	0.001385444098316941	-0.01626882342991249	0.1187069877745201	-27.95557399643745	17.01456826475756	-8.766710357422301	2.501819004886265	-457.1713155044443	-27.01214261019951	-4.625970750445238	0.4015525465664466	0.3104436255920588	-0.06834523656844814	-1.794060924438662	0.09211487692134004	-0.5950727631998306	1.264455916429492	-2.178703457935112	-2.1787034579347	-0.4340045383098077	0.03080730288012594	-0.9646515479475298	-0.05943624987183925	-2.790791970671814e-07	-4.581182618611174e-07	3.422044717107724e-06	1.149897934521133e-07	-6.065615897203871e-07	-8.847300535046652e-07	-4.73263774957101e-07
